<svg id="visual" viewBox="0 0 960 540" width="960" height="540" xmlns="http://www.w3.org/2000/svg" xmlns:xlink="http://www.w3.org/1999/xlink" version="1.1"><rect x="0" y="0" width="960" height="540" fill="#ffffff"></rect><defs><linearGradient id="grad1_0" x1="43.8%" y1="100%" x2="100%" y2="0%"><stop offset="14.444444444444446%" stop-color="#0052c1" stop-opacity="1"></stop><stop offset="85.55555555555554%" stop-color="#0052c1" stop-opacity="1"></stop></linearGradient></defs><defs><linearGradient id="grad1_1" x1="43.8%" y1="100%" x2="100%" y2="0%"><stop offset="14.444444444444446%" stop-color="#0052c1" stop-opacity="1"></stop><stop offset="85.55555555555554%" stop-color="#7b87d7" stop-opacity="1"></stop></linearGradient></defs><defs><linearGradient id="grad1_2" x1="43.8%" y1="100%" x2="100%" y2="0%"><stop offset="14.444444444444446%" stop-color="#bfc1eb" stop-opacity="1"></stop><stop offset="85.55555555555554%" stop-color="#7b87d7" stop-opacity="1"></stop></linearGradient></defs><defs><linearGradient id="grad1_3" x1="43.8%" y1="100%" x2="100%" y2="0%"><stop offset="14.444444444444446%" stop-color="#bfc1eb" stop-opacity="1"></stop><stop offset="85.55555555555554%" stop-color="#ffffff" stop-opacity="1"></stop></linearGradient></defs><defs><linearGradient id="grad2_0" x1="0%" y1="100%" x2="56.3%" y2="0%"><stop offset="14.444444444444446%" stop-color="#0052c1" stop-opacity="1"></stop><stop offset="85.55555555555554%" stop-color="#0052c1" stop-opacity="1"></stop></linearGradient></defs><defs><linearGradient id="grad2_1" x1="0%" y1="100%" x2="56.3%" y2="0%"><stop offset="14.444444444444446%" stop-color="#7b87d7" stop-opacity="1"></stop><stop offset="85.55555555555554%" stop-color="#0052c1" stop-opacity="1"></stop></linearGradient></defs><defs><linearGradient id="grad2_2" x1="0%" y1="100%" x2="56.3%" y2="0%"><stop offset="14.444444444444446%" stop-color="#7b87d7" stop-opacity="1"></stop><stop offset="85.55555555555554%" stop-color="#bfc1eb" stop-opacity="1"></stop></linearGradient></defs><defs><linearGradient id="grad2_3" x1="0%" y1="100%" x2="56.3%" y2="0%"><stop offset="14.444444444444446%" stop-color="#ffffff" stop-opacity="1"></stop><stop offset="85.55555555555554%" stop-color="#bfc1eb" stop-opacity="1"></stop></linearGradient></defs><g transform="translate(960, 540)"><path d="M-297 0C-280.3 -27.3 -263.5 -54.6 -253 -82.2C-242.4 -109.8 -238.1 -137.7 -226.5 -164.6C-215 -191.5 -196.2 -217.3 -172.8 -237.9C-149.4 -258.4 -121.4 -273.5 -91.8 -282.5C-62.2 -291.4 -31.1 -294.2 0 -297L0 0Z" fill="#dfe0f5"></path><path d="M-222.7 0C-210.2 -20.5 -197.6 -41 -189.7 -61.6C-181.8 -82.3 -178.6 -103.3 -169.9 -123.4C-161.2 -143.6 -147.2 -163 -129.6 -178.4C-112.1 -193.8 -91 -205.1 -68.8 -211.8C-46.7 -218.6 -23.3 -220.7 0 -222.7L0 0Z" fill="#9ea3e1"></path><path d="M-148.5 0C-140.1 -13.7 -131.8 -27.3 -126.5 -41.1C-121.2 -54.9 -119 -68.8 -113.3 -82.3C-107.5 -95.7 -98.1 -108.7 -86.4 -118.9C-74.7 -129.2 -60.7 -136.8 -45.9 -141.2C-31.1 -145.7 -15.6 -147.1 0 -148.5L0 0Z" fill="#526ccc"></path><path d="M-74.2 0C-70.1 -6.8 -65.9 -13.7 -63.2 -20.5C-60.6 -27.4 -59.5 -34.4 -56.6 -41.1C-53.7 -47.9 -49.1 -54.3 -43.2 -59.5C-37.4 -64.6 -30.3 -68.4 -22.9 -70.6C-15.6 -72.9 -7.8 -73.6 0 -74.2L0 0Z" fill="#0052c1"></path></g><g transform="translate(0, 0)"><path d="M297 0C282.6 27.5 268.2 55 260.6 84.7C253 114.4 252.3 146.3 239.5 174C226.7 201.6 201.8 225 174.6 240.3C147.3 255.6 117.6 262.9 88.1 271.1C58.6 279.2 29.3 288.1 0 297L0 0Z" fill="#dfe0f5"></path><path d="M222.8 0C211.9 20.6 201.1 41.2 195.4 63.5C189.8 85.8 189.2 109.8 179.6 130.5C170 151.2 151.4 168.7 130.9 180.2C110.5 191.7 88.2 197.2 66.1 203.3C43.9 209.4 22 216.1 0 222.8L0 0Z" fill="#9ea3e1"></path><path d="M148.5 0C141.3 13.7 134.1 27.5 130.3 42.3C126.5 57.2 126.1 73.2 119.7 87C113.3 100.8 100.9 112.5 87.3 120.1C73.6 127.8 58.8 131.5 44 135.5C29.3 139.6 14.6 144 0 148.5L0 0Z" fill="#526ccc"></path><path d="M74.3 0C70.6 6.9 67 13.7 65.1 21.2C63.3 28.6 63.1 36.6 59.9 43.5C56.7 50.4 50.5 56.2 43.6 60.1C36.8 63.9 29.4 65.7 22 67.8C14.6 69.8 7.3 72 0 74.3L0 0Z" fill="#0052c1"></path></g></svg>